# xmcd
#
# Track frame offsets: 
#        150
#        11230
#        20661
#        31220
#        40594
#        52849
#        64193
#        75655
#        91246
#        105245
#        116820
#        131571
#        143962
#        156986
#        170034
#        184469
#        199654
#        208861
#        222096
#        234064
#        249391
#        265753
#        278485
#        290355
#
# Disc length: 4031 seconds
#
# Revision: 0
# Processed by: cddbd v1.5.2PL0 Copyright (c) Steve Scherf et al.
# Submitted via: ExactAudioCopy v1.3
#
DISCID=500fbd18
DTITLE=Stompin' Tom Connors - A Proud Canadian
DYEAR=2009
DGENRE=Country
TTITLE0=Bud The Spud
TTITLE1=The Hockey Song (new 2008 version)
TTITLE2=Snowmobile Song
TTITLE3=Roll On Saskatchewan
TTITLE4=Manitoba
TTITLE5=Sudbury Saturday Night
TTITLE6=To It And At It
TTITLE7=Tillsonburg
TTITLE8=Roving All Over The Land
TTITLE9=New Brunswick And Mary
TTITLE10=Big Joe Mufferaw
TTITLE11=Gumboot Cloggeroo (Gumboot Cloggin')
TTITLE12=The Old Atlantic Shore
TTITLE13=Blue Nose
TTITLE14=Fleur De Lis
TTITLE15=Margo's Cargo
TTITLE16=The Ketchup Song
TTITLE17=Tribute To Wilf Carter
TTITLE18=The Bridge Came Tumblin' Down
TTITLE19=Marten Hartwell Story
TTITLE20=I Am The Wind
TTITLE21=The Singer (Voice Of The People)
TTITLE22=Canada Day, Up Canada Way
TTITLE23=The Olympic Song (new 2008 version)
EXTD=
EXTT0=
EXTT1=
EXTT2=
EXTT3=
EXTT4=
EXTT5=
EXTT6=
EXTT7=
EXTT8=
EXTT9=
EXTT10=
EXTT11=
EXTT12=
EXTT13=
EXTT14=
EXTT15=
EXTT16=
EXTT17=
EXTT18=
EXTT19=
EXTT20=
EXTT21=
EXTT22=
EXTT23=
PLAYORDER=
